<svg width="40" height="40" viewBox="0 0 40 40" fill="none" xmlns="http://www.w3.org/2000/svg">
<circle cx="20" cy="20" r="18.5" stroke="#FB8070" stroke-width="3"/>
<path d="M12.7499 18.4434L12.7247 18.4489H23.5371L20.1381 15.0424C19.9717 14.8761 19.8804 14.6508 19.8804 14.4143C19.8804 14.1779 19.9717 13.9541 20.1381 13.7874L20.667 13.2583C20.8333 13.092 21.0549 13 21.2913 13C21.5277 13 21.7495 13.0913 21.9158 13.2576L27.7424 19.0837C27.9094 19.2507 28.0007 19.4731 28 19.7097C28.0007 19.9476 27.9094 20.1701 27.7424 20.3368L21.9158 26.1634C21.7495 26.3296 21.5279 26.421 21.2913 26.421C21.0549 26.421 20.8333 26.3295 20.667 26.1634L20.1381 25.6342C19.9717 25.4682 19.8804 25.2464 19.8804 25.01C19.8804 24.7737 19.9717 24.5636 20.1381 24.3974L23.5755 20.9718H12.7378C12.2509 20.9718 11.8417 20.5521 11.8417 20.0654V19.317C11.8417 18.8303 12.2629 18.4434 12.7499 18.4434Z" fill="#FB8070"/>
</svg>
