<svg width="21" height="14" viewBox="0 0 21 14" fill="none" xmlns="http://www.w3.org/2000/svg">
<path fill-rule="evenodd" clip-rule="evenodd" d="M12.6864 0.21055C12.9735 -0.0701834 13.4352 -0.0701834 13.7126 0.21055L20.1483 6.50366C20.4354 6.77428 20.4354 7.22573 20.1483 7.49697L13.7126 13.7895C13.4359 14.0702 12.9735 14.0702 12.6864 13.7895C12.4089 13.5188 12.4089 13.0668 12.6864 12.786L17.8901 7.70752L6.36375 7.70752V6.29184L17.8901 6.29184L12.6864 1.20387C12.4089 0.933249 12.4089 0.481799 12.6864 0.21055ZM3.8183 6.29184L0.71845 6.29184C0.318162 6.29248 0 6.60356 0 6.99494C0 7.38633 0.318162 7.70752 0.71845 7.70752L3.8183 7.70752L3.8183 6.29184Z" fill="white"/>
</svg>
