<svg width="330" height="333" viewBox="0 0 330 333" fill="none" xmlns="http://www.w3.org/2000/svg">
<path d="M-1.83231 67.6518V355.375C-1.83231 372.382 4.40361 388.352 15.2971 399.811C26.1404 411.302 41.2307 417.826 57.0235 417.853H277.977C293.774 417.826 308.864 411.302 319.703 399.811C330.596 388.352 336.832 372.382 336.832 355.375V67.6518C358.487 61.9039 372.519 40.9837 369.622 18.7634C366.721 -3.45233 347.794 -20.0708 325.387 -20.0754H265.596V-34.673C265.664 -46.9487 260.811 -58.7362 252.121 -67.4081C243.43 -76.0755 231.625 -80.9018 219.349 -80.8014H115.651C103.375 -80.9018 91.5696 -76.0755 82.8795 -67.4081C74.1893 -58.7362 69.3356 -46.9487 69.4041 -34.673V-20.0754H9.61313C-12.7942 -20.0708 -31.7209 -3.45233 -34.6222 18.7634C-37.5189 40.9837 -23.487 61.9039 -1.83231 67.6518ZM277.977 394.497H57.0235C37.0567 394.497 21.5239 377.345 21.5239 355.375V68.6781H313.476V355.375C313.476 377.345 297.943 394.497 277.977 394.497ZM92.7603 -34.673C92.6827 -40.7538 95.0731 -46.6065 99.3885 -50.8991C103.699 -55.1918 109.566 -57.5502 115.651 -57.4453H219.349C225.434 -57.5502 231.301 -55.1918 235.612 -50.8991C239.927 -46.6111 242.317 -40.7538 242.24 -34.673V-20.0754H92.7603V-34.673ZM9.61313 3.28082H325.387C336.997 3.28082 346.408 12.6917 346.408 24.3014C346.408 35.9111 336.997 45.322 325.387 45.322H9.61313C-1.99654 45.322 -11.4074 35.9111 -11.4074 24.3014C-11.4074 12.6917 -1.99654 3.28082 9.61313 3.28082Z" fill="white" fill-opacity="0.1"/>
</svg>
