<svg width="21" height="25" viewBox="0 0 21 25" fill="none" xmlns="http://www.w3.org/2000/svg">
<path d="M3.99529 8.61209C5.55231 7.07216 7.62267 6.16072 9.80988 6.05232C11.9971 5.94391 14.1474 6.64616 15.8491 8.02458C17.5508 9.40299 18.6841 11.3607 19.0322 13.5228C19.3802 15.6848 18.9184 17.8993 17.7353 19.7421C17.6879 19.7957 17.6528 19.859 17.6322 19.9275C17.6117 19.996 17.6062 20.0682 17.6162 20.139C17.6262 20.2098 17.6515 20.2776 17.6902 20.3378C17.7289 20.3979 17.7802 20.4489 17.8406 20.4873C17.9009 20.5258 17.9689 20.5506 18.0398 20.5602C18.1107 20.5699 18.1828 20.564 18.2512 20.5431C18.3196 20.5221 18.3827 20.4866 18.436 20.439C18.4894 20.3913 18.5318 20.3327 18.5603 20.2671C19.4332 18.9327 19.9687 17.4062 20.1208 15.8189C20.2728 14.2317 20.0369 12.6313 19.4333 11.1554C18.8297 9.67958 17.8764 8.37253 16.6556 7.34679C15.4349 6.32104 13.9831 5.60733 12.4253 5.26709V4.03709C12.7862 3.95206 13.1074 3.7469 13.3364 3.45527C13.5653 3.16363 13.6884 2.80284 13.6853 2.43209C13.6853 1.99309 13.512 1.57185 13.2029 1.26003C12.8939 0.948208 12.4743 0.771045 12.0353 0.76709L8.51029 0.76709C8.07131 0.771045 7.65166 0.948208 7.34264 1.26003C7.03363 1.57185 6.86028 1.99309 6.86029 2.43209C6.85721 2.80284 6.98024 3.16363 7.20919 3.45527C7.43814 3.7469 7.75941 3.95206 8.12029 4.03709V5.26709C5.87299 5.76059 3.87411 7.03647 2.48029 8.86709L3.99529 8.61209ZM1.05529 18.4071C1.55713 19.7127 2.33484 20.8946 3.33529 21.8721C4.93712 23.5064 7.05918 24.5303 9.33529 24.7671C9.66529 24.7671 9.98029 24.7671 10.3103 24.7671C12.2163 24.7667 14.0814 24.2145 15.6803 23.1771C15.7884 23.1064 15.8647 22.9962 15.8927 22.8701C15.9207 22.744 15.8983 22.6119 15.8303 22.5021C15.6803 22.2771 15.2153 22.3671 14.9903 22.5021C13.2898 23.5806 11.2682 24.037 9.26928 23.7936C7.27033 23.5502 5.41735 22.6222 4.02529 21.1671L1.05529 18.4071ZM0.440293 15.5571C0.487768 16.1894 0.588119 16.8166 0.740293 17.4321L0.440293 15.5571ZM0.665293 12.7671C0.537807 13.3598 0.457555 13.9617 0.425293 14.5671L0.665293 12.7671ZM1.83529 9.84209C1.47634 10.4349 1.17976 11.0632 0.950293 11.7171L1.83529 9.84209ZM7.83529 2.43209C7.83525 2.25166 7.90588 2.07839 8.03206 1.94941C8.15823 1.82044 8.32991 1.74601 8.51029 1.74209H12.0353C12.2157 1.74601 12.3874 1.82044 12.5135 1.94941C12.6397 2.07839 12.7103 2.25166 12.7103 2.43209C12.7103 2.52073 12.6928 2.60851 12.6589 2.6904C12.625 2.7723 12.5753 2.84671 12.5126 2.90939C12.4499 2.97207 12.3755 3.02179 12.2936 3.05571C12.2117 3.08963 12.1239 3.10709 12.0353 3.10709H8.51029C8.42165 3.10709 8.33388 3.08963 8.25198 3.05571C8.17009 3.02179 8.09568 2.97207 8.033 2.90939C7.97032 2.84671 7.9206 2.7723 7.88667 2.6904C7.85275 2.60851 7.83529 2.52073 7.83529 2.43209ZM9.09529 5.11709V4.08209H11.4503V5.11709C10.6679 5.0271 9.87771 5.0271 9.09529 5.11709Z" fill="#005258"/>
<path d="M16.91 21.047C16.8465 21.0455 16.7832 21.0567 16.724 21.0799C16.6648 21.1031 16.6107 21.1378 16.565 21.182C16.4729 21.2737 16.4192 21.3971 16.415 21.527C16.415 21.6583 16.4672 21.7842 16.56 21.877C16.6529 21.9699 16.7788 22.022 16.91 22.022C17.0413 22.022 17.1672 21.9699 17.2601 21.877C17.3529 21.7842 17.405 21.6583 17.405 21.527C17.4008 21.3971 17.3472 21.2737 17.255 21.182C17.2093 21.1378 17.1553 21.1031 17.0961 21.0799C17.0369 21.0567 16.9736 21.0455 16.91 21.047Z" fill="#005258"/>
<path d="M2.70545 14.897C2.69058 16.3983 3.12218 17.8701 3.94545 19.1257C4.76871 20.3812 5.9465 21.3638 7.32928 21.9486C8.71205 22.5335 10.2374 22.6942 11.7117 22.4104C13.1861 22.1267 14.5428 21.4112 15.6097 20.3549C16.6766 19.2986 17.4055 17.949 17.7039 16.4776C18.0024 15.0062 17.8568 13.4793 17.2857 12.0907C16.7147 10.7022 15.7439 9.5147 14.4966 8.67898C13.2493 7.84327 11.7818 7.39705 10.2804 7.39697C8.28555 7.40077 6.37235 8.18981 4.95474 9.59338C3.53713 10.997 2.7291 12.9022 2.70545 14.897ZM3.68045 14.897C3.68045 13.5916 4.06753 12.3156 4.79275 11.2302C5.51797 10.1448 6.54875 9.29891 7.75474 8.79937C8.96073 8.29983 10.2878 8.16913 11.568 8.42379C12.8483 8.67845 14.0243 9.30704 14.9474 10.2301C15.8704 11.1531 16.499 12.3291 16.7536 13.6094C17.0083 14.8897 16.8776 16.2167 16.3781 17.4227C15.8785 18.6287 15.0326 19.6595 13.9472 20.3847C12.8618 21.1099 11.5858 21.497 10.2804 21.497C8.53124 21.493 6.8548 20.7964 5.61792 19.5595C4.38104 18.3226 3.68441 16.6462 3.68045 14.897Z" fill="#005258"/>
<path d="M13.3701 11.1171L10.9551 13.5471C10.7457 13.4416 10.5145 13.3866 10.2801 13.3866C10.0456 13.3866 9.81445 13.4416 9.60509 13.5471L8.52509 12.4671C8.42974 12.3996 8.31361 12.368 8.19723 12.3779C8.08085 12.3878 7.97171 12.4385 7.88912 12.5211C7.80653 12.6037 7.75581 12.7128 7.74592 12.8292C7.73603 12.9456 7.76761 13.0617 7.83509 13.1571L8.91509 14.2671C8.81785 14.4736 8.76667 14.6988 8.76509 14.9271C8.76509 15.3249 8.92312 15.7064 9.20443 15.9877C9.48573 16.269 9.86726 16.4271 10.2651 16.4271C10.6629 16.4271 11.0444 16.269 11.3257 15.9877C11.6071 15.7064 11.7651 15.3249 11.7651 14.9271C11.7729 14.701 11.732 14.4759 11.6451 14.2671L13.9851 11.8821H14.0601C14.1064 11.8373 14.1432 11.7837 14.1683 11.7244C14.1934 11.6652 14.2064 11.6015 14.2064 11.5371C14.2064 11.4727 14.1934 11.409 14.1683 11.3497C14.1432 11.2904 14.1064 11.2368 14.0601 11.1921C13.9758 11.0948 13.8578 11.033 13.7298 11.0191C13.6018 11.0052 13.4733 11.0402 13.3701 11.1171ZM10.2801 15.4371C10.1369 15.4371 9.99952 15.3802 9.89825 15.2789C9.79698 15.1776 9.74009 15.0403 9.74009 14.8971C9.74009 14.7539 9.79698 14.6165 9.89825 14.5152C9.99952 14.414 10.1369 14.3571 10.2801 14.3571C10.4233 14.3571 10.5607 14.414 10.6619 14.5152C10.7632 14.6165 10.8201 14.7539 10.8201 14.8971C10.8201 15.0403 10.7632 15.1776 10.6619 15.2789C10.5607 15.3802 10.4233 15.4371 10.2801 15.4371Z" fill="#005258"/>
<path d="M15.5002 14.417H15.0502C14.9189 14.417 14.793 14.4691 14.7002 14.562C14.6073 14.6548 14.5552 14.7807 14.5552 14.912C14.5551 14.9763 14.568 15.04 14.5931 15.0992C14.6181 15.1584 14.6549 15.212 14.701 15.2568C14.7472 15.3016 14.8019 15.3366 14.8619 15.3599C14.9219 15.3831 14.9859 15.394 15.0502 15.392H15.5002C15.5645 15.394 15.6285 15.3831 15.6885 15.3599C15.7485 15.3366 15.8032 15.3016 15.8493 15.2568C15.8955 15.212 15.9322 15.1584 15.9573 15.0992C15.9823 15.04 15.9952 14.9763 15.9952 14.912C15.9952 14.7807 15.943 14.6548 15.8502 14.562C15.7574 14.4691 15.6315 14.417 15.5002 14.417Z" fill="#005258"/>
<path d="M5.51043 14.4023H5.06043C4.92915 14.4023 4.80324 14.4545 4.71041 14.5473C4.61758 14.6402 4.56543 14.7661 4.56543 14.8973C4.56543 15.0286 4.61758 15.1545 4.71041 15.2474C4.80324 15.3402 4.92915 15.3923 5.06043 15.3923H5.51043C5.64171 15.3923 5.76762 15.3402 5.86045 15.2474C5.95328 15.1545 6.00543 15.0286 6.00543 14.8973C6.00543 14.7661 5.95328 14.6402 5.86045 14.5473C5.76762 14.4545 5.64171 14.4023 5.51043 14.4023Z" fill="#005258"/>
<path d="M10.2802 10.622C10.3501 10.6305 10.421 10.6241 10.4881 10.6031C10.5553 10.582 10.6172 10.5469 10.6697 10.5001C10.7222 10.4532 10.7642 10.3957 10.7927 10.3314C10.8213 10.2671 10.8357 10.1974 10.8352 10.127V9.67701C10.8353 9.6127 10.8224 9.54903 10.7973 9.48979C10.7723 9.43056 10.7356 9.37696 10.6894 9.33219C10.6432 9.28741 10.5885 9.25237 10.5285 9.22915C10.4685 9.20593 10.4045 9.195 10.3402 9.19701C10.2129 9.19701 10.0908 9.24758 10.0008 9.3376C9.9108 9.42762 9.86023 9.54971 9.86023 9.67701V10.127C9.85554 10.2471 9.89609 10.3646 9.97386 10.4563C10.0516 10.5479 10.161 10.6071 10.2802 10.622Z" fill="#005258"/>
<path d="M10.2802 19.1871C10.2159 19.185 10.1518 19.196 10.0919 19.2192C10.0319 19.2424 9.97718 19.2775 9.93101 19.3222C9.88483 19.367 9.84813 19.4206 9.82307 19.4798C9.79802 19.5391 9.78512 19.6027 9.78516 19.6671V20.1171C9.78516 20.2483 9.83731 20.3742 9.93014 20.4671C10.023 20.5599 10.1489 20.6121 10.2802 20.6121C10.3505 20.6232 10.4224 20.6187 10.4907 20.5986C10.559 20.5786 10.622 20.5436 10.6751 20.4962C10.7282 20.4489 10.7702 20.3903 10.7978 20.3247C10.8255 20.2591 10.8383 20.1882 10.8352 20.1171V19.6671C10.836 19.5972 10.8216 19.528 10.7929 19.4642C10.7643 19.4005 10.722 19.3438 10.6692 19.2981C10.6163 19.2524 10.5541 19.2188 10.4869 19.1996C10.4197 19.1804 10.3492 19.1761 10.2802 19.1871Z" fill="#005258"/>
<path d="M10.2805 24.2418C15.4416 24.2418 19.6255 20.0579 19.6255 14.8968C19.6255 9.73566 15.4416 5.55176 10.2805 5.55176C5.11945 5.55176 0.935547 9.73566 0.935547 14.8968C0.935547 20.0579 5.11945 24.2418 10.2805 24.2418Z" stroke="#005258" stroke-width="0.8" stroke-miterlimit="10"/>
</svg>
