<svg width="40" height="41" viewBox="0 0 40 41" fill="none" xmlns="http://www.w3.org/2000/svg">
<g clip-path="url(#clip0)">
<path fill-rule="evenodd" clip-rule="evenodd" d="M0.524728 29.2565C-0.401834 30.184 -0.101287 31.303 1.42621 31.3782L5.77668 31.9297C7.28379 32.1188 6.98324 32.1826 7.16309 33.6161L7.62293 37.5816C7.70035 39.1131 8.81809 39.4116 9.74238 38.4841L12.8339 35.3915L15.9983 32.2215C15.7229 32.1189 15.4406 31.964 15.1856 31.7451L12.9409 26.0773L6.08621 23.689L0.524728 29.2565Z" fill="#FF646F"/>
<path fill-rule="evenodd" clip-rule="evenodd" d="M10.2305 33.4566L7.4668 36.2234L7.62391 37.5816C7.70133 39.1131 8.81906 39.4116 9.74336 38.4841L12.8349 35.3916L15.9993 32.2215C15.7238 32.1189 15.4416 31.964 15.1866 31.7451L13.3972 30.2866L10.2305 33.4566Z" fill="#FC2B3A"/>
<path fill-rule="evenodd" clip-rule="evenodd" d="M24.002 32.2214L27.1686 35.3915L30.2579 38.484C31.1844 39.4116 32.3022 39.113 32.3796 37.5815L32.8372 33.6161C33.017 32.1826 32.7165 32.1188 34.2258 31.9296L38.574 31.3781C40.1039 31.3029 40.4021 30.1839 39.4778 29.2564L33.8797 23.6523L26.3991 24.4112L24.002 32.2214Z" fill="#FF646F"/>
<path fill-rule="evenodd" clip-rule="evenodd" d="M31.7413 26.1957L37.1026 31.565L38.571 31.3781C40.1008 31.3029 40.399 30.1839 39.4747 29.2564L33.8767 23.6523L29.6309 24.083L31.7413 26.1957Z" fill="#FC2B3A"/>
<path fill-rule="evenodd" clip-rule="evenodd" d="M21.1786 1.95426L23.2617 2.93879L26.2121 3.12793C26.631 3.15528 27.5439 3.46293 28.1107 4.25832L29.4994 6.10199L32.0218 7.64488C32.3815 7.86363 33.0486 8.56106 33.1806 9.53192L33.5562 11.8109L35.0769 14.3543C35.2932 14.7166 35.5596 15.6442 35.2272 16.5626L34.5032 18.7596L34.6717 21.7177C34.6968 22.1393 34.5032 23.0851 33.7838 23.746L32.1264 25.3504L30.9039 28.051C30.7309 28.4339 30.1208 29.1836 29.1783 29.4297L26.9655 30.0793L24.6343 31.9002C24.302 32.16 23.4164 32.5383 22.4648 32.3172L20.2064 31.8614L17.2993 32.3856C16.885 32.4608 15.9243 32.3833 15.1867 31.7452L13.3973 30.2867L10.5789 29.3956C10.1782 29.2703 9.36551 28.7529 9.00582 27.8436L8.09746 25.7196L6.01442 23.6161C5.71848 23.3153 5.23582 22.4789 5.34059 21.5058L5.52043 19.2018L4.65082 16.3689C4.52559 15.9656 4.48692 14.9993 5.02871 14.1857L6.25574 12.2303L6.79754 9.31543C6.87496 8.90067 7.28926 8.02777 8.14528 7.56059L10.1372 6.39832L11.9675 4.07145C12.2271 3.74098 12.9988 3.15988 13.9732 3.14621L16.2747 3.0459L18.9747 1.83801C19.3575 1.66707 20.309 1.51215 21.1786 1.95426Z" fill="#EFB986"/>
<path fill-rule="evenodd" clip-rule="evenodd" d="M19.9773 28.9193C26.5315 28.9193 31.845 23.6002 31.845 17.0366C31.845 10.4755 26.5316 5.15625 19.9773 5.15625C13.4209 5.15625 8.10742 10.4754 8.10742 17.0366C8.10742 23.6001 13.4209 28.9193 19.9773 28.9193Z" fill="#DB895A"/>
<path fill-rule="evenodd" clip-rule="evenodd" d="M31.846 17.0369C31.846 11.6676 28.2878 7.13016 23.4023 5.66016C25.6971 8.94414 27.1131 13.4498 27.1131 18.4248C27.1131 21.1185 26.6988 23.6755 25.9521 25.9751C25.7677 26.5471 25.5605 27.1032 25.3352 27.6433C27.0745 26.7613 28.5678 25.4623 29.6834 23.8784C31.0447 21.9458 31.846 19.5848 31.846 17.0369Z" fill="#B96D42"/>
<path fill-rule="evenodd" clip-rule="evenodd" d="M35.2256 16.5626C35.558 15.6441 35.2916 14.7166 35.0754 14.3542L33.5547 11.8109L33.1791 9.53188C33.047 8.56102 32.38 7.86368 32.0203 7.64485L29.4979 6.10196L28.1091 4.25837C27.5423 3.46298 26.6294 3.15532 26.2105 3.12798L23.2601 2.93884L21.177 1.9543C20.5168 1.6193 19.8088 1.6261 19.3398 1.72641C20.8697 2.66305 22.247 4.0054 23.4012 5.65993C28.2866 7.12985 31.8448 11.6674 31.8448 17.0366C31.8448 19.5845 31.0435 21.9456 29.6821 23.8781C28.5666 25.462 27.0732 26.761 25.3339 27.6431C25.0266 28.3769 24.6851 29.0811 24.3095 29.7443C23.7767 30.6878 23.1803 31.5538 22.527 32.3309C22.9777 32.4244 23.4125 32.3834 23.7745 32.2899C24.1593 32.1896 24.4666 32.0302 24.6328 31.9002L26.964 30.0793L29.1768 29.4298C30.1193 29.1837 30.7294 28.4338 30.9024 28.051L32.1249 25.3504L33.7276 23.7961L33.7822 23.7459C34.5016 23.085 34.6951 22.1392 34.6701 21.7177L34.5016 18.7595L35.2256 16.5626Z" fill="#D8A474"/>
<path d="M21.4357 15.53L24.2797 12.29V10.4H15.4597V12.74H20.8237L18.2317 15.674V17.6H19.5637C21.2197 17.6 21.9217 18.194 21.9217 19.148C21.9217 20.174 21.0217 20.768 19.5637 20.768C18.2497 20.768 16.9177 20.354 15.9637 19.634L14.8297 21.866C16.0537 22.73 17.8717 23.216 19.6357 23.216C23.2177 23.216 24.8557 21.272 24.8557 19.148C24.8557 17.294 23.7037 15.89 21.4357 15.53Z" fill="#F9DFD0"/>
</g>
<defs>
<clipPath id="clip0">
<rect y="0.337891" width="40" height="40" fill="white"/>
</clipPath>
</defs>
</svg>
