<svg width="88" height="89" viewBox="0 0 88 89" fill="none" xmlns="http://www.w3.org/2000/svg">
<g filter="url(#filter0_d)">
<path d="M68 39C68 52.255 57.255 63 44 63C30.745 63 20 52.255 20 39C20 25.745 30.745 15 44 15C57.255 15 68 25.745 68 39Z" fill="#FF8C47"/>
</g>
<mask id="mask0" mask-type="alpha" maskUnits="userSpaceOnUse" x="12" y="0" width="64" height="64">
<circle cx="44" cy="32" r="32" fill="#C4C4C4"/>
</mask>
<g mask="url(#mask0)">
<path d="M15.9992 4.35544C10.9699 9.57944 11.9992 15.1288 11.9992 31.9874C11.9992 45.9874 9.55656 60.0221 22.3406 63.3261C26.3326 64.3528 61.7032 64.3528 65.6899 63.3208C71.0126 61.9474 75.3432 57.6301 75.9352 50.1021C76.0179 49.0514 76.0179 14.9421 75.9326 13.8701C75.3032 5.85144 70.3672 1.23011 63.8632 0.294108C62.3726 0.0781081 62.0739 0.0141081 54.4259 0.000774764C27.2979 0.0141081 21.3512 -1.19389 15.9992 4.35544Z" fill="url(#paint0_linear)"/>
<path d="M43.9955 8.37046C34.3128 8.37046 25.1181 7.50913 21.6061 16.5225C20.1555 20.2451 20.3661 25.0798 20.3661 32.0025C20.3661 38.0771 20.1715 43.7865 21.6061 47.4798C25.1101 56.4985 34.3795 55.6345 43.9901 55.6345C53.2621 55.6345 62.8221 56.5998 66.3768 47.4798C67.8301 43.7198 67.6168 38.9571 67.6168 32.0025C67.6168 22.7705 68.1261 16.8105 63.6488 12.3358C59.1155 7.80246 52.9848 8.37046 43.9848 8.37046H43.9955ZM41.8781 12.6291C62.0755 12.5971 64.6461 10.3518 63.2275 41.5438C62.7235 52.5758 54.3235 51.3651 43.9981 51.3651C25.1715 51.3651 24.6301 50.8265 24.6301 31.9918C24.6301 12.9385 26.1235 12.6398 41.8781 12.6238V12.6291ZM56.6088 16.5518C55.0435 16.5518 53.7741 17.8211 53.7741 19.3865C53.7741 20.9518 55.0435 22.2211 56.6088 22.2211C58.1741 22.2211 59.4435 20.9518 59.4435 19.3865C59.4435 17.8211 58.1741 16.5518 56.6088 16.5518ZM43.9955 19.8665C37.2941 19.8665 31.8621 25.3011 31.8621 32.0025C31.8621 38.7038 37.2941 44.1358 43.9955 44.1358C50.6968 44.1358 56.1261 38.7038 56.1261 32.0025C56.1261 25.3011 50.6968 19.8665 43.9955 19.8665ZM43.9955 24.1251C54.4088 24.1251 54.4221 39.8798 43.9955 39.8798C33.5848 39.8798 33.5688 24.1251 43.9955 24.1251Z" fill="white"/>
</g>
<defs>
<filter id="filter0_d" x="0" y="1" width="88" height="88" filterUnits="userSpaceOnUse" color-interpolation-filters="sRGB">
<feFlood flood-opacity="0" result="BackgroundImageFix"/>
<feColorMatrix in="SourceAlpha" type="matrix" values="0 0 0 0 0 0 0 0 0 0 0 0 0 0 0 0 0 0 127 0"/>
<feOffset dy="6"/>
<feGaussianBlur stdDeviation="10"/>
<feColorMatrix type="matrix" values="0 0 0 0 0.936372 0 0 0 0 0.376733 0 0 0 0 0.0219618 0 0 0 0.6 0"/>
<feBlend mode="normal" in2="BackgroundImageFix" result="effect1_dropShadow"/>
<feBlend mode="normal" in="SourceGraphic" in2="effect1_dropShadow" result="shape"/>
</filter>
<linearGradient id="paint0_linear" x1="16.1219" y1="59.913" x2="75.6032" y2="8.43271" gradientUnits="userSpaceOnUse">
<stop stop-color="#FFDD55"/>
<stop offset="0.5" stop-color="#FF543E"/>
<stop offset="1" stop-color="#C837AB"/>
</linearGradient>
</defs>
</svg>
