<svg width="41" height="41" viewBox="0 0 41 41" fill="none" xmlns="http://www.w3.org/2000/svg">
<g clip-path="url(#clip0)">
<path fill-rule="evenodd" clip-rule="evenodd" d="M1.02473 29.2565C0.0981657 30.184 0.398713 31.303 1.92621 31.3782L6.27668 31.9297C7.78379 32.1188 7.48324 32.1826 7.66309 33.6161L8.12293 37.5816C8.20035 39.1131 9.31809 39.4116 10.2424 38.4841L13.3339 35.3915L16.4983 32.2215C16.2229 32.1189 15.9406 31.964 15.6856 31.7451L13.4409 26.0773L6.58621 23.689L1.02473 29.2565Z" fill="#FF646F"/>
<path fill-rule="evenodd" clip-rule="evenodd" d="M10.7305 33.4566L7.9668 36.2234L8.12391 37.5816C8.20133 39.1131 9.31906 39.4116 10.2434 38.4841L13.3349 35.3916L16.4993 32.2215C16.2238 32.1189 15.9416 31.964 15.6866 31.7451L13.8972 30.2866L10.7305 33.4566Z" fill="#FC2B3A"/>
<path fill-rule="evenodd" clip-rule="evenodd" d="M24.502 32.2214L27.6686 35.3915L30.7579 38.484C31.6844 39.4116 32.8022 39.113 32.8796 37.5815L33.3372 33.6161C33.517 32.1826 33.2165 32.1188 34.7258 31.9296L39.074 31.3781C40.6039 31.3029 40.9021 30.1839 39.9778 29.2564L34.3797 23.6523L26.8991 24.4112L24.502 32.2214Z" fill="#FF646F"/>
<path fill-rule="evenodd" clip-rule="evenodd" d="M32.2413 26.1957L37.6026 31.565L39.071 31.3781C40.6008 31.3029 40.899 30.1839 39.9747 29.2564L34.3767 23.6523L30.1309 24.083L32.2413 26.1957Z" fill="#FC2B3A"/>
<path fill-rule="evenodd" clip-rule="evenodd" d="M21.6786 1.95426L23.7617 2.93879L26.7121 3.12793C27.131 3.15528 28.0439 3.46293 28.6107 4.25832L29.9994 6.10199L32.5218 7.64488C32.8815 7.86363 33.5486 8.56106 33.6806 9.53192L34.0562 11.8109L35.5769 14.3543C35.7932 14.7166 36.0596 15.6442 35.7272 16.5626L35.0032 18.7596L35.1717 21.7177C35.1968 22.1393 35.0032 23.0851 34.2838 23.746L32.6264 25.3504L31.4039 28.051C31.2309 28.4339 30.6208 29.1836 29.6783 29.4297L27.4655 30.0793L25.1343 31.9002C24.802 32.16 23.9164 32.5383 22.9648 32.3172L20.7064 31.8614L17.7993 32.3856C17.385 32.4608 16.4243 32.3833 15.6867 31.7452L13.8973 30.2867L11.0789 29.3956C10.6782 29.2703 9.86551 28.7529 9.50582 27.8436L8.59746 25.7196L6.51442 23.6161C6.21848 23.3153 5.73582 22.4789 5.84059 21.5058L6.02043 19.2018L5.15082 16.3689C5.02559 15.9656 4.98692 14.9993 5.52871 14.1857L6.75574 12.2303L7.29754 9.31543C7.37496 8.90067 7.78926 8.02777 8.64528 7.56059L10.6372 6.39832L12.4675 4.07145C12.7271 3.74098 13.4988 3.15988 14.4732 3.14621L16.7747 3.0459L19.4747 1.83801C19.8575 1.66707 20.809 1.51215 21.6786 1.95426Z" fill="#D9E4E4"/>
<path fill-rule="evenodd" clip-rule="evenodd" d="M20.4773 28.9193C27.0315 28.9193 32.345 23.6002 32.345 17.0366C32.345 10.4755 27.0316 5.15625 20.4773 5.15625C13.9209 5.15625 8.60742 10.4754 8.60742 17.0366C8.60742 23.6001 13.9209 28.9193 20.4773 28.9193Z" fill="#ADC1C0"/>
<path fill-rule="evenodd" clip-rule="evenodd" d="M32.346 17.0369C32.346 11.6676 28.7878 7.13016 23.9023 5.66016C26.1971 8.94414 27.6131 13.4498 27.6131 18.4248C27.6131 21.1185 27.1988 23.6755 26.4521 25.9751C26.2677 26.5471 26.0605 27.1032 25.8352 27.6433C27.5745 26.7613 29.0678 25.4623 30.1834 23.8784C31.5447 21.9458 32.346 19.5848 32.346 17.0369Z" fill="#95A9A8"/>
<path fill-rule="evenodd" clip-rule="evenodd" d="M35.7256 16.5626C36.058 15.6441 35.7916 14.7166 35.5754 14.3542L34.0547 11.8109L33.6791 9.53188C33.547 8.56102 32.88 7.86368 32.5203 7.64485L29.9979 6.10196L28.6091 4.25837C28.0423 3.46298 27.1294 3.15532 26.7105 3.12798L23.7601 2.93884L21.677 1.9543C21.0168 1.6193 20.3088 1.6261 19.8398 1.72641C21.3697 2.66305 22.747 4.0054 23.9012 5.65993C28.7866 7.12985 32.3448 11.6674 32.3448 17.0366C32.3448 19.5845 31.5435 21.9456 30.1821 23.8781C29.0666 25.462 27.5732 26.761 25.8339 27.6431C25.5266 28.3769 25.1851 29.0811 24.8095 29.7443C24.2767 30.6878 23.6803 31.5538 23.027 32.3309C23.4777 32.4244 23.9125 32.3834 24.2745 32.2899C24.6593 32.1896 24.9666 32.0302 25.1328 31.9002L27.464 30.0793L29.6768 29.4298C30.6193 29.1837 31.2294 28.4338 31.4024 28.051L32.6249 25.3504L34.2276 23.7961L34.2822 23.7459C35.0016 23.085 35.1951 22.1392 35.1701 21.7177L35.0016 18.7595L35.7256 16.5626Z" fill="#C1D5D5"/>
<path d="M20.0808 20.624L22.9788 17.888C24.7428 16.25 25.0848 15.134 25.0848 13.91C25.0848 11.624 23.2128 10.184 20.4048 10.184C18.1368 10.184 16.3728 11.102 15.4008 12.524L17.5248 13.892C18.1368 13.046 19.0548 12.632 20.1348 12.632C21.4668 12.632 22.1508 13.208 22.1508 14.198C22.1508 14.81 21.9528 15.458 20.8368 16.52L15.9768 21.11V23H25.4988V20.624H20.0808Z" fill="#E6F1F1"/>
</g>
<defs>
<clipPath id="clip0">
<rect x="0.5" y="0.337891" width="40" height="40" fill="white"/>
</clipPath>
</defs>
</svg>
