<svg width="88" height="89" viewBox="0 0 88 89" fill="none" xmlns="http://www.w3.org/2000/svg">
<g filter="url(#filter0_d)">
<path d="M68 39C68 52.255 57.255 63 44 63C30.745 63 20 52.255 20 39C20 25.745 30.745 15 44 15C57.255 15 68 25.745 68 39Z" fill="#0081CA"/>
</g>
<circle cx="44" cy="32" r="32" fill="#00ACED"/>
<path fill-rule="evenodd" clip-rule="evenodd" d="M44 64C61.6731 64 76 49.6731 76 32C76 14.3269 61.6731 0 44 0V64Z" fill="#0081CA"/>
<path d="M60.5773 20.6013L59.7687 20.9104C59.7687 20.9104 60.7088 19.2228 60.9917 18.4126C61.1337 18.0059 60.9195 17.791 60.6708 17.6777C60.4082 17.5581 60.1059 17.5842 59.8518 17.7214C58.1525 18.6383 55.6918 18.9334 55.6918 18.9334C54.3987 17.4043 52.2949 17.0204 50.1592 17.0003C46.1523 16.9626 42.7925 20.1789 42.725 24.2594C42.717 24.7396 42.7545 25.2095 42.8326 25.6651C35.2616 25.4273 29.6077 18.6281 29.6077 18.6281C25.3196 20.497 28.7976 27.3589 28.7976 27.3589C25.4561 29.1833 30.376 34.4042 30.376 34.4042C29.1984 38.1621 35.1622 40.6424 35.1622 40.6424C31.8277 42.8855 26.7313 42.4216 26.7313 42.4216C25.4223 42.8655 26.2699 43.7957 26.2699 43.7957C38.9714 51.1517 49.3347 43.5399 49.3347 43.5399C59.2527 36.1564 58.4507 25.3801 58.4507 25.3801L61.8472 21.5305C62.1597 21.0869 61.9423 20.8163 61.6468 20.6567C61.3177 20.4789 60.9259 20.468 60.5773 20.6013Z" fill="white"/>
<path d="M61.6468 20.652C61.3178 20.4745 60.926 20.4635 60.5773 20.5966L59.7687 20.9055C59.7687 20.9055 60.7088 19.22 60.9918 18.4108C61.1338 18.0047 60.9196 17.79 60.6707 17.6769C60.4082 17.5575 60.1059 17.5835 59.8517 17.7205C58.1525 18.6362 55.6918 18.9309 55.6918 18.9309C54.3987 17.4038 52.2949 17.0204 50.1592 17.0003C47.6227 16.9765 45.3469 18.2559 44 20.2313V46C47.3283 44.9774 49.3348 43.5062 49.3348 43.5062C59.2527 36.1321 58.4507 25.3694 58.4507 25.3694L61.8472 21.5247C62.1598 21.0816 61.9423 20.8114 61.6468 20.652Z" fill="#DCE1EB"/>
<defs>
<filter id="filter0_d" x="0" y="1" width="88" height="88" filterUnits="userSpaceOnUse" color-interpolation-filters="sRGB">
<feFlood flood-opacity="0" result="BackgroundImageFix"/>
<feColorMatrix in="SourceAlpha" type="matrix" values="0 0 0 0 0 0 0 0 0 0 0 0 0 0 0 0 0 0 127 0"/>
<feOffset dy="6"/>
<feGaussianBlur stdDeviation="10"/>
<feColorMatrix type="matrix" values="0 0 0 0 0 0 0 0 0 0.505882 0 0 0 0 0.792157 0 0 0 0.6 0"/>
<feBlend mode="normal" in2="BackgroundImageFix" result="effect1_dropShadow"/>
<feBlend mode="normal" in="SourceGraphic" in2="effect1_dropShadow" result="shape"/>
</filter>
</defs>
</svg>
