<svg width="40" height="40" viewBox="0 0 40 40" fill="none" xmlns="http://www.w3.org/2000/svg">
<g filter="url(#filter0_d)">
<rect x="10.4004" y="4.2002" width="19.2" height="19.2" rx="9.6" fill="white"/>
</g>
<rect x="8" width="24" height="24" rx="12" fill="#FB8070"/>
<path d="M15.6507 11.0658L15.6356 11.0692H22.1231L20.0836 9.02524C19.9838 8.92545 19.929 8.79027 19.929 8.64839C19.929 8.50652 19.9838 8.37228 20.0836 8.27226L20.401 7.95477C20.5008 7.85498 20.6337 7.7998 20.7755 7.7998C20.9174 7.7998 21.0505 7.85459 21.1503 7.95437L24.6462 11.45C24.7464 11.5502 24.8012 11.6836 24.8008 11.8256C24.8012 11.9683 24.7464 12.1019 24.6462 12.2019L21.1503 15.6978C21.0505 15.7976 20.9175 15.8524 20.7755 15.8524C20.6337 15.8524 20.5008 15.7975 20.401 15.6978L20.0836 15.3804C19.9838 15.2807 19.929 15.1477 19.929 15.0058C19.929 14.864 19.9838 14.738 20.0836 14.6383L22.1461 12.5829H15.6435C15.3513 12.5829 15.1058 12.3311 15.1058 12.039V11.59C15.1058 11.298 15.3586 11.0658 15.6507 11.0658Z" fill="white"/>
<defs>
<filter id="filter0_d" x="0.400391" y="0.200195" width="39.2" height="39.2" filterUnits="userSpaceOnUse" color-interpolation-filters="sRGB">
<feFlood flood-opacity="0" result="BackgroundImageFix"/>
<feColorMatrix in="SourceAlpha" type="matrix" values="0 0 0 0 0 0 0 0 0 0 0 0 0 0 0 0 0 0 127 0"/>
<feOffset dy="6"/>
<feGaussianBlur stdDeviation="5"/>
<feColorMatrix type="matrix" values="0 0 0 0 0 0 0 0 0 0 0 0 0 0 0 0 0 0 0.2 0"/>
<feBlend mode="normal" in2="BackgroundImageFix" result="effect1_dropShadow"/>
<feBlend mode="normal" in="SourceGraphic" in2="effect1_dropShadow" result="shape"/>
</filter>
</defs>
</svg>
